<?xml version="1.0" encoding="utf-8"?>
<!-- Generator: Adobe Illustrator 21.0.2, SVG Export Plug-In . SVG Version: 6.00 Build 0)  -->
<svg version="1.1" baseProfile="tiny" id="Layer_1" xmlns="http://www.w3.org/2000/svg" xmlns:xlink="http://www.w3.org/1999/xlink"
	 x="0px" y="0px" viewBox="0 0 1000 1000" xml:space="preserve">
<path d="M878.1,295.2c6.1,36.5,3,64.7,2.1,71.9c-2.8,22.6-8.3,39.1-12.8,51.5c-7,19.4-19.2,47-41.4,78.8
	c-40.5,46.7-72.6,83.4-88.7,101.6c7.1,2.5,16.1,4.5,26.3,4.1c32.2-1.1,54.2-24.6,63-35.8c-51.8,70-102.3,113.6-128.5,126
	c-19.4,9.1-38.5,14-38.5,14c-15.6,4-29.2,5.5-39.4,6.1c-18,14.6-39,30.4-56.8,40.9c-55.4,32.7-156.4,61.7-197,18.9
	c-5.4-5.6-12.1-15.1-15.7-31c-2.6-0.2-6.4-0.4-11-0.1c0,0-5.2,0.4-10.4,1.5c-7.9,1.8-114.7,28-260.6,64c8.6-3.1,12.2-4.8,13.7-5.8
	c0.2-0.1,0.9-0.7,2-1.2c1.7-0.8,2.7-1,4.1-1.4c2.8-0.9,2.4-1.5,6-2.9c1.9-0.7,2.3-0.7,4-1.5c1.5-0.7,1.7-1,3.1-1.6
	c1.7-0.7,1.9-0.5,3.7-1.2c2-0.8,2-1.1,4.2-2.1c1.8-0.7,1.7-0.5,3.7-1.3c2.2-0.9,2.2-1.2,3.6-1.6c1.9-0.5,2.2,0,3.7-0.5
	c1.3-0.4,1.2-0.8,3.3-2.1c0.4-0.3,2.1-1.3,4.4-2.2c2-0.8,2-0.5,3.9-1.2c2.4-0.9,2.3-1.4,4.5-2.2c2.2-0.9,2.4-0.4,4.8-1.4
	c1.9-0.8,1.8-1.1,3.6-1.7c2.1-0.8,2.4-0.4,4.2-1.1c2-0.8,1.9-1.4,3.8-2.1c2-0.8,2.3-0.2,4.3-1.1c1.8-0.7,1.7-1.2,3.7-2
	c1.6-0.7,1.9-0.4,3.7-1.1c2.3-0.8,2.2-1.2,4.5-2.1c2.6-1,2.8-0.5,5.3-1.5c2.1-0.9,1.8-1.2,4.1-2.1c2.2-0.9,2.5-0.6,4.6-1.5
	c1.8-0.8,1.8-1.2,3.3-1.7c1.5-0.5,1.9-0.3,3.2-0.8c1.3-0.6,1.3-1,2.5-1.5c1.4-0.6,1.8-0.3,3.4-0.8c1.8-0.5,1.6-1,3.7-2
	c2-0.9,2.2-0.5,4.5-1.4c1.7-0.7,1.6-1,3.4-1.7c2.2-0.9,2.4-0.6,4.3-1.4c2.5-1.1,2.2-1.7,4.5-2.6c2-0.8,2.4-0.3,4.3-1.2
	c1.6-0.7,1.5-1.1,3.2-2c1.8-0.9,2.3-0.5,4.5-1.5c2.4-1.1,2.6-1.6,4.5-2.2c2.6-0.9,3,0,5.6-0.8c2.5-0.8,2.5-1.7,5.6-2.9
	c2.3-0.9,2.3-0.5,4.9-1.4c3.2-1.2,3.4-2,6.5-3.2c2.8-1.1,2.8-0.5,5.9-1.6c3.2-1.2,3.3-1.9,6.6-3.2c3.3-1.3,3.5-0.8,7-2.1
	c3.7-1.4,3.4-2,7.1-3.5c4.4-1.8,4.8-1,8.8-2.8c2.5-1.2,2.8-1.7,5.4-2.7c2.7-1.1,3.2-0.8,5.8-1.7c3.8-1.3,3.8-2.5,7.3-3.6
	c3.4-1.1,4.3-0.7,7.9-1.7c4.9-1.4,4.6-2.5,9.1-3.9c5.1-1.5,5.6,0.1,10.8-1.5c4.1-1.2,4.6-2.4,8.9-3.5c3.2-0.8,5.9-1,7.7-1
	c7.3-45.5,23.7-77.7,34.6-98c26.2-48.7,65-76.3,126.6-120.1c10.8-7.6,22.8-15.4,38.1-22.3c5.7-2.6,20.5-8.9,54.3-16.4
	c8.6-1.9,13.2-2.1,24.8-4.7c0,0,15.4-3.5,31-8.5c10.6-3.4,38.5-12.3,65.6-27.5c9.3-5.2,72.4-41.9,87.7-91c1.9-6.1,6.9-22.5,0.5-39
	c-2.1-5.4-9.6-22.3-31.7-30.1c-14.5-5.1-28.7-3.9-36.2-2.8c-26.6-30.4-53.1-60.7-79.7-91.1l77.7-33.4c3.7-2.7,8.9-5.7,15.5-7.4
	c19.9-5.3,36.9,4.7,41,7.3c1.3-6.9,4.2-17,10.7-27.6c10-16.3,23.2-25.1,30.3-29.1c20.5-8.8,40.9-17.6,61.4-26.4l1.3,150.2
	c-0.4,0.1-0.9,0.2-1.6,0.4c-11.8,3.4-23.3,10.8-29.4,18.7c-4.7,6.1-7.4,14.2-7,34.1C868.9,260.7,874,271.4,878.1,295.2z"/>
<path d="M830.2,586.4c-0.7,1-1.8,2.7-3.5,4.8C827.9,589.6,829,588,830.2,586.4z"/>
</svg>
